<svg xmlns="http://www.w3.org/2000/svg" xmlns:xlink="http://www.w3.org/1999/xlink" width="432" zoomAndPan="magnify" viewBox="0 0 324 225" height="300" preserveAspectRatio="xMidYMid meet" version="1.0"><defs><g/><clipPath id="id1"><path d="M 75 75.210938 L 150 75.210938 L 150 149.460938 L 75 149.460938 Z M 75 75.210938 " clip-rule="nonzero"/></clipPath></defs><rect x="-32.4" width="388.8" fill="#ffffff" y="-22.5" height="270" fill-opacity="1"/><rect x="-32.4" width="388.8" fill="#ffffff" y="-22.5" height="270" fill-opacity="1"/><g clip-path="url(#id1)"><path fill="#dd6b20" d="M 92.273438 75.214844 L 132.726562 75.214844 C 137.308594 75.214844 141.703125 77.023438 144.941406 80.242188 C 148.179688 83.464844 150 87.832031 150 92.386719 L 150 132.285156 C 150 136.839844 148.179688 141.207031 144.941406 144.425781 C 141.703125 147.644531 137.308594 149.457031 132.726562 149.457031 L 92.273438 149.457031 C 87.691406 149.457031 83.296875 147.644531 80.058594 144.425781 C 76.820312 141.207031 75 136.839844 75 132.285156 L 75 92.386719 C 75 87.832031 76.820312 83.464844 80.058594 80.242188 C 83.296875 77.023438 87.691406 75.214844 92.273438 75.214844 " fill-opacity="1" fill-rule="nonzero"/></g><g fill="#ffffff" fill-opacity="1"><g transform="translate(107.730464, 123.20947)"><g><path d="M 4.734375 -19.71875 C 3.773438 -19.71875 2.988281 -20 2.375 -20.5625 C 1.769531 -21.125 1.46875 -21.820312 1.46875 -22.65625 C 1.46875 -23.507812 1.769531 -24.21875 2.375 -24.78125 C 2.988281 -25.34375 3.773438 -25.625 4.734375 -25.625 C 5.671875 -25.625 6.441406 -25.34375 7.046875 -24.78125 C 7.660156 -24.21875 7.96875 -23.507812 7.96875 -22.65625 C 7.96875 -21.820312 7.660156 -21.125 7.046875 -20.5625 C 6.441406 -20 5.671875 -19.71875 4.734375 -19.71875 Z M 7.453125 -17.859375 L 7.453125 0 L 1.984375 0 L 1.984375 -17.859375 Z M 7.453125 -17.859375 "/></g></g></g><g fill="#000000" fill-opacity="1"><g transform="translate(163.65222, 126.750005)"><g><path d="M 2.9375 -27.125 L 12.390625 -27.125 C 16.078125 -27.125 18.8125 -26.578125 20.59375 -25.484375 C 22.382812 -24.390625 23.28125 -22.6875 23.28125 -20.375 C 23.28125 -18.851562 22.890625 -17.550781 22.109375 -16.46875 C 21.335938 -15.394531 20.3125 -14.707031 19.03125 -14.40625 L 19.03125 -14.21875 C 20.71875 -13.769531 21.9375 -13.023438 22.6875 -11.984375 C 23.445312 -10.941406 23.828125 -9.59375 23.828125 -7.9375 C 23.828125 -5.476562 22.898438 -3.539062 21.046875 -2.125 C 19.203125 -0.707031 16.679688 0 13.484375 0 L 2.9375 0 Z M 10.265625 -16.71875 L 12.46875 -16.71875 C 13.519531 -16.71875 14.332031 -16.929688 14.90625 -17.359375 C 15.476562 -17.796875 15.765625 -18.441406 15.765625 -19.296875 C 15.765625 -20.816406 14.617188 -21.578125 12.328125 -21.578125 L 10.265625 -21.578125 Z M 10.265625 -11.359375 L 10.265625 -5.65625 L 12.84375 -5.65625 C 15.125 -5.65625 16.265625 -6.617188 16.265625 -8.546875 C 16.265625 -9.453125 15.957031 -10.144531 15.34375 -10.625 C 14.738281 -11.113281 13.851562 -11.359375 12.6875 -11.359375 Z M 10.265625 -11.359375 "/></g></g></g><g fill="#000000" fill-opacity="1"><g transform="translate(189.252423, 126.750005)"><g><path d="M 9.765625 0 L 2.5 0 L 2.5 -28.875 L 9.765625 -28.875 Z M 9.765625 0 "/></g></g></g><g fill="#000000" fill-opacity="1"><g transform="translate(201.533101, 126.750005)"><g><path d="M 22.578125 -10.5625 C 22.578125 -7.125 21.648438 -4.441406 19.796875 -2.515625 C 17.953125 -0.585938 15.367188 0.375 12.046875 0.375 C 8.847656 0.375 6.304688 -0.609375 4.421875 -2.578125 C 2.535156 -4.546875 1.59375 -7.207031 1.59375 -10.5625 C 1.59375 -13.988281 2.515625 -16.648438 4.359375 -18.546875 C 6.210938 -20.441406 8.8125 -21.390625 12.15625 -21.390625 C 14.21875 -21.390625 16.039062 -20.953125 17.625 -20.078125 C 19.207031 -19.203125 20.425781 -17.941406 21.28125 -16.296875 C 22.144531 -14.660156 22.578125 -12.75 22.578125 -10.5625 Z M 8.96875 -10.5625 C 8.96875 -8.75 9.207031 -7.367188 9.6875 -6.421875 C 10.164062 -5.484375 10.972656 -5.015625 12.109375 -5.015625 C 13.242188 -5.015625 14.039062 -5.484375 14.5 -6.421875 C 14.96875 -7.367188 15.203125 -8.75 15.203125 -10.5625 C 15.203125 -12.351562 14.960938 -13.707031 14.484375 -14.625 C 14.015625 -15.539062 13.210938 -16 12.078125 -16 C 10.960938 -16 10.164062 -15.539062 9.6875 -14.625 C 9.207031 -13.71875 8.96875 -12.363281 8.96875 -10.5625 Z M 8.96875 -10.5625 "/></g></g></g><g fill="#000000" fill-opacity="1"><g transform="translate(225.741989, 126.750005)"><g><path d="M 22.34375 -21.015625 L 22.34375 -17.515625 L 19.46875 -16.453125 C 19.863281 -15.734375 20.0625 -14.898438 20.0625 -13.953125 C 20.0625 -11.691406 19.265625 -9.9375 17.671875 -8.6875 C 16.085938 -7.4375 13.71875 -6.8125 10.5625 -6.8125 C 9.78125 -6.8125 9.160156 -6.859375 8.703125 -6.953125 C 8.523438 -6.628906 8.4375 -6.328125 8.4375 -6.046875 C 8.4375 -5.691406 8.726562 -5.414062 9.3125 -5.21875 C 9.894531 -5.03125 10.65625 -4.9375 11.59375 -4.9375 L 15.078125 -4.9375 C 19.796875 -4.9375 22.15625 -2.953125 22.15625 1.015625 C 22.15625 3.578125 21.0625 5.566406 18.875 6.984375 C 16.695312 8.410156 13.632812 9.125 9.6875 9.125 C 6.707031 9.125 4.410156 8.625 2.796875 7.625 C 1.179688 6.632812 0.375 5.207031 0.375 3.34375 C 0.375 0.832031 1.929688 -0.785156 5.046875 -1.515625 C 4.398438 -1.796875 3.835938 -2.238281 3.359375 -2.84375 C 2.890625 -3.445312 2.65625 -4.046875 2.65625 -4.640625 C 2.65625 -5.296875 2.832031 -5.875 3.1875 -6.375 C 3.550781 -6.875 4.300781 -7.472656 5.4375 -8.171875 C 4.34375 -8.648438 3.484375 -9.398438 2.859375 -10.421875 C 2.242188 -11.453125 1.9375 -12.703125 1.9375 -14.171875 C 1.9375 -16.460938 2.710938 -18.238281 4.265625 -19.5 C 5.828125 -20.757812 8.054688 -21.390625 10.953125 -21.390625 C 11.328125 -21.390625 11.984375 -21.347656 12.921875 -21.265625 C 13.867188 -21.179688 14.566406 -21.097656 15.015625 -21.015625 Z M 6.5 2.609375 C 6.5 3.203125 6.816406 3.679688 7.453125 4.046875 C 8.097656 4.421875 8.957031 4.609375 10.03125 4.609375 C 11.789062 4.609375 13.195312 4.382812 14.25 3.9375 C 15.3125 3.5 15.84375 2.9375 15.84375 2.25 C 15.84375 1.6875 15.519531 1.289062 14.875 1.0625 C 14.238281 0.832031 13.316406 0.71875 12.109375 0.71875 L 9.28125 0.71875 C 8.5 0.71875 7.835938 0.898438 7.296875 1.265625 C 6.765625 1.628906 6.5 2.078125 6.5 2.609375 Z M 8.78125 -14.140625 C 8.78125 -11.984375 9.523438 -10.90625 11.015625 -10.90625 C 11.710938 -10.90625 12.25 -11.171875 12.625 -11.703125 C 13 -12.234375 13.1875 -13.035156 13.1875 -14.109375 C 13.1875 -16.285156 12.460938 -17.375 11.015625 -17.375 C 9.523438 -17.375 8.78125 -16.296875 8.78125 -14.140625 Z M 8.78125 -14.140625 "/></g></g></g></svg>